<mxfile host="app.diagrams.net" agent="Mozilla/5.0 (Macintosh; Intel Mac OS X 10_15_7) AppleWebKit/537.36 (KHTML, like Gecko) Chrome/131.0.0.0 Safari/537.36" version="25.0.3">
  <diagram name="第 1 页" id="6YhEDXorub7UgSmAtdh1">
    <mxGraphModel dx="1306" dy="1870" grid="1" gridSize="10" guides="1" tooltips="1" connect="1" arrows="1" fold="1" page="1" pageScale="1" pageWidth="827" pageHeight="1169" math="0" shadow="0">
      <root>
        <mxCell id="0" />
        <mxCell id="1" parent="0" />
        <mxCell id="qNDXQFCxwlSBHD1XrmVw-17" value="" style="rounded=1;whiteSpace=wrap;html=1;fillColor=none;dashed=1;" vertex="1" parent="1">
          <mxGeometry x="410" y="110" width="140" height="90" as="geometry" />
        </mxCell>
        <mxCell id="qNDXQFCxwlSBHD1XrmVw-16" value="" style="rounded=1;whiteSpace=wrap;html=1;fillColor=none;dashed=1;" vertex="1" parent="1">
          <mxGeometry x="570" y="110" width="140" height="90" as="geometry" />
        </mxCell>
        <mxCell id="qNDXQFCxwlSBHD1XrmVw-4" value="&lt;div class=&quot;lake-content&quot;&gt;&lt;span class=&quot;ne-text&quot;&gt;1.有商品+有件重尺&lt;/span&gt;&lt;/div&gt;" style="rounded=1;whiteSpace=wrap;html=1;fillColor=none;" vertex="1" parent="1">
          <mxGeometry x="150" y="120" width="110" height="30" as="geometry" />
        </mxCell>
        <mxCell id="qNDXQFCxwlSBHD1XrmVw-5" value="&lt;div class=&quot;lake-content&quot;&gt;&lt;span class=&quot;ne-text&quot;&gt;2.有商品+有件重尺&lt;/span&gt;&lt;/div&gt;" style="rounded=1;whiteSpace=wrap;html=1;fillColor=none;" vertex="1" parent="1">
          <mxGeometry x="150" y="160" width="110" height="30" as="geometry" />
        </mxCell>
        <mxCell id="qNDXQFCxwlSBHD1XrmVw-6" value="&lt;div class=&quot;lake-content&quot;&gt;&lt;span class=&quot;ne-text&quot;&gt;3.有商品+有件重尺&lt;/span&gt;&lt;/div&gt;" style="rounded=1;whiteSpace=wrap;html=1;fillColor=none;" vertex="1" parent="1">
          <mxGeometry x="270" y="120" width="110" height="30" as="geometry" />
        </mxCell>
        <mxCell id="qNDXQFCxwlSBHD1XrmVw-7" value="&lt;div class=&quot;lake-content&quot;&gt;&lt;span class=&quot;ne-text&quot;&gt;4.有商品+有件重尺&lt;/span&gt;&lt;/div&gt;" style="rounded=1;whiteSpace=wrap;html=1;fillColor=none;" vertex="1" parent="1">
          <mxGeometry x="270" y="160" width="110" height="30" as="geometry" />
        </mxCell>
        <mxCell id="qNDXQFCxwlSBHD1XrmVw-8" value="&lt;div class=&quot;lake-content&quot;&gt;&lt;span class=&quot;ne-text&quot;&gt;5.有件重尺&lt;/span&gt;&lt;/div&gt;" style="rounded=1;whiteSpace=wrap;html=1;fillColor=none;" vertex="1" parent="1">
          <mxGeometry x="425" y="120" width="110" height="30" as="geometry" />
        </mxCell>
        <mxCell id="qNDXQFCxwlSBHD1XrmVw-9" value="&lt;div class=&quot;lake-content&quot;&gt;&lt;span class=&quot;ne-text&quot;&gt;6.无件重尺&lt;/span&gt;&lt;/div&gt;" style="rounded=1;whiteSpace=wrap;html=1;fillColor=none;" vertex="1" parent="1">
          <mxGeometry x="425" y="160" width="110" height="30" as="geometry" />
        </mxCell>
        <mxCell id="qNDXQFCxwlSBHD1XrmVw-10" value="&lt;div class=&quot;lake-content&quot;&gt;&lt;span class=&quot;ne-text&quot;&gt;7.有件重尺&lt;/span&gt;&lt;/div&gt;" style="rounded=1;whiteSpace=wrap;html=1;fillColor=none;" vertex="1" parent="1">
          <mxGeometry x="584" y="120" width="110" height="30" as="geometry" />
        </mxCell>
        <mxCell id="qNDXQFCxwlSBHD1XrmVw-11" value="&lt;div class=&quot;lake-content&quot;&gt;&lt;span class=&quot;ne-text&quot;&gt;8.无件重尺&lt;/span&gt;&lt;/div&gt;" style="rounded=1;whiteSpace=wrap;html=1;fillColor=none;" vertex="1" parent="1">
          <mxGeometry x="584" y="160" width="110" height="30" as="geometry" />
        </mxCell>
        <mxCell id="qNDXQFCxwlSBHD1XrmVw-12" value="" style="rounded=1;whiteSpace=wrap;html=1;fillColor=none;dashed=1;" vertex="1" parent="1">
          <mxGeometry x="130" y="110" width="260" height="90" as="geometry" />
        </mxCell>
        <mxCell id="qNDXQFCxwlSBHD1XrmVw-18" value="卡片" style="text;html=1;align=center;verticalAlign=middle;whiteSpace=wrap;rounded=0;" vertex="1" parent="1">
          <mxGeometry x="240" y="80" width="60" height="30" as="geometry" />
        </mxCell>
        <mxCell id="qNDXQFCxwlSBHD1XrmVw-19" value="详情" style="text;html=1;align=center;verticalAlign=middle;whiteSpace=wrap;rounded=0;" vertex="1" parent="1">
          <mxGeometry x="440" y="80" width="60" height="30" as="geometry" />
        </mxCell>
        <mxCell id="qNDXQFCxwlSBHD1XrmVw-20" value="询价" style="text;html=1;align=center;verticalAlign=middle;whiteSpace=wrap;rounded=0;" vertex="1" parent="1">
          <mxGeometry x="600" y="80" width="60" height="30" as="geometry" />
        </mxCell>
        <mxCell id="qNDXQFCxwlSBHD1XrmVw-31" style="edgeStyle=orthogonalEdgeStyle;rounded=0;orthogonalLoop=1;jettySize=auto;html=1;exitX=0.5;exitY=1;exitDx=0;exitDy=0;entryX=0.5;entryY=0;entryDx=0;entryDy=0;" edge="1" parent="1" source="qNDXQFCxwlSBHD1XrmVw-21" target="qNDXQFCxwlSBHD1XrmVw-23">
          <mxGeometry relative="1" as="geometry" />
        </mxCell>
        <mxCell id="qNDXQFCxwlSBHD1XrmVw-21" value="" style="rounded=1;whiteSpace=wrap;html=1;fillColor=none;" vertex="1" parent="1">
          <mxGeometry x="90" y="80" width="660" height="140" as="geometry" />
        </mxCell>
        <mxCell id="qNDXQFCxwlSBHD1XrmVw-29" style="edgeStyle=orthogonalEdgeStyle;rounded=0;orthogonalLoop=1;jettySize=auto;html=1;exitX=0.5;exitY=1;exitDx=0;exitDy=0;entryX=0.5;entryY=0;entryDx=0;entryDy=0;" edge="1" parent="1" source="qNDXQFCxwlSBHD1XrmVw-23" target="qNDXQFCxwlSBHD1XrmVw-24">
          <mxGeometry relative="1" as="geometry" />
        </mxCell>
        <mxCell id="qNDXQFCxwlSBHD1XrmVw-23" value="马士基sku/资源过滤" style="rounded=1;whiteSpace=wrap;html=1;fillColor=none;" vertex="1" parent="1">
          <mxGeometry x="200" y="260" width="439" height="70" as="geometry" />
        </mxCell>
        <mxCell id="qNDXQFCxwlSBHD1XrmVw-30" style="edgeStyle=orthogonalEdgeStyle;rounded=0;orthogonalLoop=1;jettySize=auto;html=1;exitX=0.5;exitY=1;exitDx=0;exitDy=0;entryX=0.5;entryY=0;entryDx=0;entryDy=0;" edge="1" parent="1" source="qNDXQFCxwlSBHD1XrmVw-24" target="qNDXQFCxwlSBHD1XrmVw-25">
          <mxGeometry relative="1" as="geometry" />
        </mxCell>
        <mxCell id="qNDXQFCxwlSBHD1XrmVw-24" value="方案查价" style="rounded=1;whiteSpace=wrap;html=1;fillColor=none;" vertex="1" parent="1">
          <mxGeometry x="200" y="370" width="439" height="70" as="geometry" />
        </mxCell>
        <mxCell id="qNDXQFCxwlSBHD1XrmVw-34" value="" style="edgeStyle=orthogonalEdgeStyle;rounded=0;orthogonalLoop=1;jettySize=auto;html=1;" edge="1" parent="1" source="qNDXQFCxwlSBHD1XrmVw-25" target="qNDXQFCxwlSBHD1XrmVw-33">
          <mxGeometry relative="1" as="geometry" />
        </mxCell>
        <mxCell id="qNDXQFCxwlSBHD1XrmVw-25" value="方案透传&lt;div&gt;（筛选最低价方案）&lt;/div&gt;" style="rounded=1;whiteSpace=wrap;html=1;fillColor=none;" vertex="1" parent="1">
          <mxGeometry x="200" y="480" width="439" height="70" as="geometry" />
        </mxCell>
        <mxCell id="qNDXQFCxwlSBHD1XrmVw-27" style="edgeStyle=orthogonalEdgeStyle;rounded=0;orthogonalLoop=1;jettySize=auto;html=1;exitX=0.5;exitY=1;exitDx=0;exitDy=0;entryX=0.5;entryY=0;entryDx=0;entryDy=0;" edge="1" parent="1" source="qNDXQFCxwlSBHD1XrmVw-26" target="qNDXQFCxwlSBHD1XrmVw-21">
          <mxGeometry relative="1" as="geometry" />
        </mxCell>
        <mxCell id="qNDXQFCxwlSBHD1XrmVw-26" value="开始" style="ellipse;whiteSpace=wrap;html=1;fillColor=none;" vertex="1" parent="1">
          <mxGeometry x="360" y="-50" width="120" height="80" as="geometry" />
        </mxCell>
        <mxCell id="qNDXQFCxwlSBHD1XrmVw-33" value="结束" style="ellipse;whiteSpace=wrap;html=1;fillColor=none;" vertex="1" parent="1">
          <mxGeometry x="360" y="590" width="120" height="80" as="geometry" />
        </mxCell>
      </root>
    </mxGraphModel>
  </diagram>
</mxfile>
